<?xml version="1.0" standalone="no"?><!DOCTYPE svg PUBLIC "-//W3C//DTD SVG 1.1//EN" "http://www.w3.org/Graphics/SVG/1.1/DTD/svg11.dtd"><svg t="1621160999263" class="icon" viewBox="0 0 1024 1024" version="1.1" xmlns="http://www.w3.org/2000/svg" p-id="23356" xmlns:xlink="http://www.w3.org/1999/xlink" width="16" height="16"><defs><style type="text/css"></style></defs><path d="M961.442909 1001.797818H62.557091A39.237818 39.237818 0 0 1 23.272727 962.56V62.557091a39.237818 39.237818 0 1 1 78.568728 0v860.718545h859.601454a39.237818 39.237818 0 1 1 0 78.522182zM164.584727 827.112727l127.255273-227.793454a23.179636 23.179636 0 0 1 29.928727-9.728l121.297455 56.413091 129.256727-186.321455a23.086545 23.086545 0 0 1 29.463273-7.447273l119.435636 60.881455 174.871273-274.013091c10.146909-15.918545 34.816-8.750545 34.816 10.146909v567.389091c0 23.226182-18.850909 42.077091-42.123636 42.077091H184.087273a21.783273 21.783273 0 0 1-19.549091-31.650909z" p-id="23357" ></path></svg>