<?xml version="1.0" standalone="no"?><!DOCTYPE svg PUBLIC "-//W3C//DTD SVG 1.1//EN" "http://www.w3.org/Graphics/SVG/1.1/DTD/svg11.dtd"><svg t="1621160921264" class="icon" viewBox="0 0 1024 1024" version="1.1" xmlns="http://www.w3.org/2000/svg" p-id="20904" xmlns:xlink="http://www.w3.org/1999/xlink" width="16" height="16"><defs><style type="text/css"></style></defs><path d="M160 768.64h736a32 32 0 0 1 0 64H100.672V832H96V192a32 32 0 1 1 64 0v576.64zM288 416a32 32 0 0 1 32 32v224a32 32 0 0 1-64 0v-224a32 32 0 0 1 32-32z m128-64a32 32 0 0 1 32 32v288a32 32 0 0 1-64 0v-288a32 32 0 0 1 32-32z m128-96a32 32 0 0 1 32 32v384a32 32 0 0 1-64 0V288a32 32 0 0 1 32-32z m128 192a32 32 0 0 1 32 32v192a32 32 0 0 1-64 0v-192a32 32 0 0 1 32-32z"  p-id="20905"></path></svg>