<?xml version="1.0" standalone="no"?><!DOCTYPE svg PUBLIC "-//W3C//DTD SVG 1.1//EN" "http://www.w3.org/Graphics/SVG/1.1/DTD/svg11.dtd"><svg t="1621161119338" class="icon" viewBox="0 0 1024 1024" version="1.1" xmlns="http://www.w3.org/2000/svg" p-id="2115" xmlns:xlink="http://www.w3.org/1999/xlink" width="16" height="16"><defs><style type="text/css"></style></defs><path d="M938.581333 812.117333l-24.746666-204.714666a8.277333 8.277333 0 0 0-13.994667-4.821334l-61.098667 61.013334-279.637333-278.698667a16.597333 16.597333 0 0 0-23.253333 0l-104.96 104.533333-285.141334-284.373333a8.277333 8.277333 0 0 0-11.648 0L87.722667 251.52a8.234667 8.234667 0 0 0 0 11.605333l331.52 330.794667c6.4 6.485333 16.938667 6.485333 23.338666 0l104.917334-104.533333 232.96 232.277333-61.098667 60.970667a8.234667 8.234667 0 0 0 4.864 13.952l205.312 24.661333a8.106667 8.106667 0 0 0 9.045333-9.130667z" p-id="2116" ></path></svg>