<?xml version="1.0" standalone="no"?><!DOCTYPE svg PUBLIC "-//W3C//DTD SVG 1.1//EN" "http://www.w3.org/Graphics/SVG/1.1/DTD/svg11.dtd"><svg t="1621161067634" class="icon" viewBox="0 0 1024 1024" version="1.1" xmlns="http://www.w3.org/2000/svg" p-id="24746" xmlns:xlink="http://www.w3.org/1999/xlink" width="16" height="16"><defs><style type="text/css"></style></defs><path d="M989.866667 371.2 546.133333 51.2c-8.533333-6.4-21.333333-10.666667-34.133333-10.666667S486.4 42.666667 477.866667 51.2L34.133333 371.2c-19.2 12.8-27.733333 42.666667-21.333333 66.133333l168.533333 520.533333c6.4 21.333333 32 40.533333 55.466667 40.533333l548.266667 0c23.466667 0 49.066667-19.2 55.466667-40.533333l168.533333-520.533333C1017.6 416 1009.066667 386.133333 989.866667 371.2zM834.133333 774.4l-29.866667-49.066667 76.8-238.933333c6.4-21.333333-2.133333-51.2-21.333333-66.133333L546.133333 194.133333c-8.533333-6.4-21.333333-10.666667-34.133333-10.666667s-25.6 4.266667-34.133333 10.666667L162.133333 422.4c-19.2 12.8-27.733333 42.666667-21.333333 66.133333l119.466667 371.2c6.4 21.333333 32 40.533333 55.466667 40.533333l388.266667 0c23.466667 0 49.066667-19.2 55.466667-40.533333l21.333333-66.133333 42.666667 8.533333-42.666667 134.4L241.066667 936.533333 74.666667 422.4 512 104.533333l437.333333 317.866667L834.133333 774.4zM202.666667 471.466667 426.666667 309.333333l-179.2 296.533333L202.666667 471.466667zM721.066667 778.666667l-17.066667 55.466667L322.133333 834.133333l-46.933333-145.066667L721.066667 778.666667zM522.666667 253.866667l298.666667 217.6-59.733333 181.333333L522.666667 253.866667z" p-id="24747" ></path></svg>