<?xml version="1.0" standalone="no"?><!DOCTYPE svg PUBLIC "-//W3C//DTD SVG 1.1//EN" "http://www.w3.org/Graphics/SVG/1.1/DTD/svg11.dtd"><svg t="1621161860860" class="icon" viewBox="0 0 1024 1024" version="1.1" xmlns="http://www.w3.org/2000/svg" p-id="36822" xmlns:xlink="http://www.w3.org/1999/xlink" width="16" height="16"><defs><style type="text/css"></style></defs><path d="M768 288H256a32 32 0 1 1 0-64h512a32 32 0 0 1 0 64z m-160 128H256a32 32 0 1 1 0-64h352a32 32 0 0 1 0 64z m160 128H256a32 32 0 1 1 0-64h512a32 32 0 0 1 0 64z m-160 128H256a32 32 0 0 1 0-64h352a32 32 0 0 1 0 64z m-128 128H256a32 32 0 0 1 0-64h224a32 32 0 0 1 0 64z" p-id="36823" ></path></svg>