<?xml version="1.0" standalone="no"?><!DOCTYPE svg PUBLIC "-//W3C//DTD SVG 1.1//EN" "http://www.w3.org/Graphics/SVG/1.1/DTD/svg11.dtd"><svg t="1621161836066" class="icon" viewBox="0 0 1024 1024" version="1.1" xmlns="http://www.w3.org/2000/svg" p-id="36431" xmlns:xlink="http://www.w3.org/1999/xlink" width="16" height="16"><defs><style type="text/css"></style></defs><path d="M294.4 399.36c-15.36 0-25.6 10.24-25.6 25.6s10.24 25.6 25.6 25.6h460.8c15.36 0 25.6-10.24 25.6-25.6s-10.24-25.6-25.6-25.6h-460.8z m-102.4-153.6h665.6c15.36 0 25.6-10.24 25.6-25.6s-10.24-25.6-25.6-25.6h-665.6c-15.36 0-25.6 10.24-25.6 25.6 0 12.8 10.24 25.6 25.6 25.6z m665.6 358.4h-665.6c-15.36 0-25.6 10.24-25.6 25.6s10.24 25.6 25.6 25.6h665.6c15.36 0 25.6-10.24 25.6-25.6s-10.24-25.6-25.6-25.6z m-153.6 204.8h-358.4c-15.36 0-25.6 10.24-25.6 25.6s10.24 25.6 25.6 25.6h358.4c15.36 0 25.6-10.24 25.6-25.6s-10.24-25.6-25.6-25.6z" p-id="36432" ></path></svg>