<?xml version="1.0" standalone="no"?><!DOCTYPE svg PUBLIC "-//W3C//DTD SVG 1.1//EN" "http://www.w3.org/Graphics/SVG/1.1/DTD/svg11.dtd"><svg t="1621161931448" class="icon" viewBox="0 0 1024 1024" version="1.1" xmlns="http://www.w3.org/2000/svg" p-id="38027" xmlns:xlink="http://www.w3.org/1999/xlink" width="16" height="16"><defs><style type="text/css"></style></defs><path d="M896 160H384a32 32 0 0 1 0-64h512a32 32 0 0 1 0 64zM640 928H128a32 32 0 0 1 0-64h512a32 32 0 0 1 0 64z"  p-id="38028"></path><path d="M384 928a28.8 28.8 0 0 1-10.24 0 31.36 31.36 0 0 1-19.84-40.32l256-768a32 32 0 0 1 60.16 20.48l-256 768a31.36 31.36 0 0 1-30.08 19.84z"  p-id="38029"></path></svg>