<?xml version="1.0" standalone="no"?><!DOCTYPE svg PUBLIC "-//W3C//DTD SVG 1.1//EN" "http://www.w3.org/Graphics/SVG/1.1/DTD/svg11.dtd"><svg t="1621161801944" class="icon" viewBox="0 0 1024 1024" version="1.1" xmlns="http://www.w3.org/2000/svg" p-id="35515" xmlns:xlink="http://www.w3.org/1999/xlink" width="16" height="16"><defs><style type="text/css"></style></defs><path d="M679.573 268.436h-509.99c-21.669 0-39.233 17.55-39.233 39.203v597.855c0 21.651 17.563 39.203 39.233 39.203h509.991c21.669 0 39.232-17.552 39.232-39.203V307.639c0-21.653-17.564-39.203-39.233-39.203z m-9.978 607.656c0 10.826-8.771 19.602-19.602 19.602H199.152c-10.82 0-19.602-8.775-19.602-19.602v-539.05c0-10.825 8.781-19.602 19.602-19.602h450.841c10.831 0 19.602 8.777 19.602 19.602v539.05z" p-id="35516" ></path><path d="M551.298 709.476H276.873c-13.534 0-24.502 10.968-24.502 24.503 0 13.536 10.968 24.503 24.502 24.503h274.425c13.535 0 24.504-10.967 24.504-24.503s-10.969-24.503-24.504-24.503z m-58.805-137.212h-215.62c-13.534 0-24.502 10.968-24.502 24.503 0 13.534 10.968 24.502 24.502 24.502h215.621c13.535 0 24.502-10.968 24.502-24.502-0.001-13.536-10.968-24.503-24.503-24.503z m-58.805-137.213H276.873c-13.534 0-24.502 10.97-24.502 24.503s10.968 24.502 24.502 24.502h156.816c13.534 0 24.502-10.969 24.502-24.502s-10.969-24.503-24.503-24.503zM855.421 92.02H365.375c-21.65 0-39.198 17.551-39.198 39.203v156.814h49.196V160.625c0-10.824 8.776-19.602 19.602-19.602h431.24c10.829 0 19.602 8.777 19.602 19.602v519.448c0 10.825-8.772 19.602-19.602 19.602h-126.53v49.006h155.736c21.655 0 39.203-17.554 39.203-39.205V131.223c0-21.652-17.548-39.203-39.203-39.203z" p-id="35517" ></path></svg>