<?xml version="1.0" standalone="no"?><!DOCTYPE svg PUBLIC "-//W3C//DTD SVG 1.1//EN" "http://www.w3.org/Graphics/SVG/1.1/DTD/svg11.dtd"><svg t="1621161708441" class="icon" viewBox="0 0 1024 1024" version="1.1" xmlns="http://www.w3.org/2000/svg" p-id="32296" xmlns:xlink="http://www.w3.org/1999/xlink" width="16" height="16"><defs><style type="text/css"></style></defs><path d="M733.645261 250.926126H299.598414A59.724108 59.724108 0 0 0 239.855856 310.668685v445.117117A59.724108 59.724108 0 0 0 299.598414 815.50991H493.54955a23.063063 23.063063 0 0 0 0-46.126126h-180.574559A26.993009 26.993009 0 0 1 285.981982 742.409225V324.045261A26.993009 26.993009 0 0 1 312.974991 297.052252h407.293694A26.993009 26.993009 0 0 1 747.243243 324.045261V512.922523a23.063063 23.063063 0 0 0 46.126126 0V310.668685A59.724108 59.724108 0 0 0 733.645261 250.926126z" p-id="32297" ></path><path d="M648.256577 632.42609a166.054054 166.054054 0 1 0-32.694199 32.546595l110.702703 110.702702a23.063063 23.063063 0 1 0 32.601946-32.620396z m-47.49146-15.516829a119.927928 119.927928 0 1 1 0-169.59654 119.927928 119.927928 0 0 1 0 169.59654z" p-id="32298" ></path></svg>