<?xml version="1.0" standalone="no"?><!DOCTYPE svg PUBLIC "-//W3C//DTD SVG 1.1//EN" "http://www.w3.org/Graphics/SVG/1.1/DTD/svg11.dtd"><svg t="1621158533273" class="icon" viewBox="0 0 1024 1024" version="1.1" xmlns="http://www.w3.org/2000/svg" p-id="13834" xmlns:xlink="http://www.w3.org/1999/xlink" width="16" height="16"><defs><style type="text/css"></style></defs><path d="M240.9 160.9L74 327.8c-0.4 0.4-0.7 0.8-1.1 1.1-0.2 0.2-0.3 0.4-0.5 0.6-0.2 0.2-0.4 0.4-0.5 0.6-0.2 0.2-0.4 0.5-0.6 0.7-0.1 0.2-0.3 0.3-0.4 0.5-0.2 0.3-0.4 0.6-0.6 0.8-0.1 0.1-0.2 0.3-0.3 0.4l-0.6 0.9c-0.1 0.1-0.2 0.3-0.3 0.4-0.2 0.3-0.3 0.6-0.5 0.9-0.1 0.2-0.2 0.3-0.3 0.5-0.1 0.3-0.3 0.6-0.4 0.8l-0.3 0.6c-0.1 0.3-0.2 0.5-0.4 0.8-0.1 0.2-0.2 0.5-0.3 0.7-0.1 0.2-0.2 0.5-0.3 0.7-0.1 0.3-0.2 0.5-0.3 0.8-0.1 0.2-0.1 0.4-0.2 0.6l-0.3 0.9c-0.1 0.2-0.1 0.4-0.2 0.5-0.1 0.3-0.2 0.6-0.3 1 0 0.2-0.1 0.3-0.1 0.5-0.1 0.3-0.2 0.7-0.2 1 0 0.2-0.1 0.4-0.1 0.5-0.1 0.3-0.1 0.7-0.2 1 0 0.2-0.1 0.4-0.1 0.6 0 0.3-0.1 0.6-0.1 0.9 0 0.3 0 0.5-0.1 0.8 0 0.2 0 0.5-0.1 0.7v3.2c0 0.3 0 0.5 0.1 0.7 0 0.3 0 0.5 0.1 0.8 0 0.3 0.1 0.6 0.1 0.9 0 0.2 0 0.4 0.1 0.6 0 0.3 0.1 0.7 0.2 1 0 0.2 0.1 0.4 0.1 0.5 0.1 0.3 0.1 0.7 0.2 1 0 0.2 0.1 0.3 0.1 0.5 0.1 0.3 0.2 0.6 0.3 1 0.1 0.2 0.1 0.4 0.2 0.5l0.3 0.9c0.1 0.2 0.1 0.4 0.2 0.6 0.1 0.3 0.2 0.5 0.3 0.8 0.1 0.2 0.2 0.5 0.3 0.7 0.1 0.2 0.2 0.5 0.3 0.7 0.1 0.3 0.2 0.5 0.3 0.8l0.3 0.6c0.1 0.3 0.3 0.6 0.4 0.8 0.1 0.2 0.2 0.3 0.3 0.5 0.2 0.3 0.3 0.6 0.5 0.9 0.1 0.1 0.2 0.3 0.3 0.4l0.6 0.9c0.1 0.1 0.2 0.3 0.3 0.4 0.2 0.3 0.4 0.6 0.6 0.8 0.1 0.2 0.3 0.3 0.4 0.5 0.2 0.2 0.4 0.5 0.6 0.7 0.2 0.2 0.4 0.4 0.5 0.6 0.2 0.2 0.3 0.4 0.5 0.6 0.7 0.8 1.5 1.5 2.2 2.2 0.2 0.2 0.4 0.3 0.6 0.5 0.2 0.2 0.4 0.4 0.6 0.5 0.2 0.2 0.5 0.4 0.7 0.6 0.2 0.1 0.3 0.3 0.5 0.4 0.3 0.2 0.6 0.4 0.8 0.6 0.1 0.1 0.3 0.2 0.4 0.3l0.9 0.6c0.1 0.1 0.3 0.2 0.4 0.3 0.3 0.2 0.6 0.3 0.9 0.5 0.2 0.1 0.3 0.2 0.5 0.3 0.3 0.1 0.6 0.3 0.8 0.4l0.6 0.3c0.3 0.1 0.5 0.2 0.8 0.3 0.2 0.1 0.5 0.2 0.7 0.3 0.2 0.1 0.5 0.2 0.7 0.3 0.3 0.1 0.5 0.2 0.8 0.3 0.2 0.1 0.4 0.1 0.6 0.2l0.9 0.3c0.2 0.1 0.4 0.1 0.5 0.2 0.3 0.1 0.6 0.2 1 0.3 0.2 0 0.3 0.1 0.5 0.1 0.3 0.1 0.7 0.2 1 0.2 0.2 0 0.4 0.1 0.5 0.1 0.3 0.1 0.7 0.1 1 0.2 0.2 0 0.4 0.1 0.6 0.1 0.3 0 0.6 0.1 0.9 0.1 0.3 0 0.5 0 0.8 0.1 0.2 0 0.5 0 0.7 0.1h833.6c17.7 0 32-14.3 32-32s-14.3-32-32-32H173.9L286.1 206c12.5-12.5 12.5-32.8 0-45.3-12.5-12.3-32.7-12.3-45.2 0.2zM64.6 673.6c0 17.7 14.3 32 32 32h754.7L739.1 817.8c-12.5 12.5-12.5 32.8 0 45.3s32.8 12.5 45.3 0l166.9-166.9c0.4-0.4 0.7-0.8 1.1-1.1 0.2-0.2 0.3-0.4 0.5-0.6 0.2-0.2 0.4-0.4 0.5-0.6 0.2-0.2 0.4-0.5 0.6-0.7 0.1-0.2 0.3-0.3 0.4-0.5 0.2-0.3 0.4-0.6 0.6-0.8 0.1-0.1 0.2-0.3 0.3-0.4l0.6-0.9c0.1-0.1 0.2-0.3 0.3-0.4 0.2-0.3 0.3-0.6 0.5-0.9 0.1-0.2 0.2-0.3 0.3-0.5 0.1-0.3 0.3-0.6 0.4-0.8l0.3-0.6c0.1-0.3 0.2-0.5 0.4-0.8 0.1-0.2 0.2-0.5 0.3-0.7 0.1-0.2 0.2-0.5 0.3-0.7 0.1-0.3 0.2-0.5 0.3-0.8 0.1-0.2 0.1-0.4 0.2-0.6l0.3-0.9c0.1-0.2 0.1-0.4 0.2-0.5 0.1-0.3 0.2-0.6 0.3-1 0-0.2 0.1-0.3 0.1-0.5 0.1-0.3 0.2-0.7 0.2-1 0-0.2 0.1-0.4 0.1-0.5 0.1-0.3 0.1-0.7 0.2-1 0-0.2 0.1-0.4 0.1-0.6 0-0.3 0.1-0.6 0.1-0.9 0-0.3 0-0.5 0.1-0.8 0-0.2 0-0.5 0.1-0.7v-1.6-1.6c0-0.3 0-0.5-0.1-0.7 0-0.3 0-0.5-0.1-0.8 0-0.3-0.1-0.6-0.1-0.9 0-0.2 0-0.4-0.1-0.6 0-0.3-0.1-0.7-0.2-1 0-0.2-0.1-0.4-0.1-0.5-0.1-0.3-0.1-0.7-0.2-1 0-0.2-0.1-0.3-0.1-0.5-0.1-0.3-0.2-0.6-0.3-1-0.1-0.2-0.1-0.4-0.2-0.5l-0.3-0.9c-0.1-0.2-0.1-0.4-0.2-0.6-0.1-0.3-0.2-0.5-0.3-0.8-0.1-0.2-0.2-0.5-0.3-0.7-0.1-0.2-0.2-0.5-0.3-0.7-0.1-0.3-0.2-0.5-0.3-0.8l-0.3-0.6c-0.1-0.3-0.3-0.6-0.4-0.8-0.1-0.2-0.2-0.3-0.3-0.5-0.2-0.3-0.3-0.6-0.5-0.9-0.1-0.1-0.2-0.3-0.3-0.4l-0.6-0.9c-0.1-0.1-0.2-0.3-0.3-0.4-0.2-0.3-0.4-0.6-0.6-0.8-0.1-0.2-0.3-0.3-0.4-0.5-0.2-0.2-0.4-0.5-0.6-0.7-0.2-0.2-0.4-0.4-0.5-0.6-0.2-0.2-0.3-0.4-0.5-0.6-0.7-0.8-1.5-1.5-2.2-2.2-0.2-0.2-0.4-0.3-0.6-0.5-0.2-0.2-0.4-0.4-0.6-0.5-0.2-0.2-0.5-0.4-0.7-0.6-0.2-0.1-0.3-0.3-0.5-0.4-0.3-0.2-0.6-0.4-0.8-0.6-0.1-0.1-0.3-0.2-0.4-0.3l-0.9-0.6c-0.1-0.1-0.3-0.2-0.4-0.3-0.3-0.2-0.6-0.3-0.9-0.5-0.2-0.1-0.3-0.2-0.5-0.3-0.3-0.1-0.6-0.3-0.8-0.4l-0.6-0.3c-0.3-0.1-0.5-0.2-0.8-0.3-0.2-0.1-0.5-0.2-0.7-0.3-0.2-0.1-0.5-0.2-0.7-0.3-0.3-0.1-0.5-0.2-0.8-0.3-0.2-0.1-0.4-0.1-0.6-0.2l-0.9-0.3c-0.2-0.1-0.4-0.1-0.5-0.2-0.3-0.1-0.6-0.2-1-0.3-0.2 0-0.3-0.1-0.5-0.1-0.3-0.1-0.7-0.2-1-0.2-0.2 0-0.4-0.1-0.5-0.1-0.3-0.1-0.7-0.1-1-0.2-0.2 0-0.4-0.1-0.6-0.1-0.3 0-0.6-0.1-0.9-0.1-0.3 0-0.5 0-0.8-0.1-0.2 0-0.5 0-0.7-0.1H97c-18-0.2-32.4 14.1-32.4 31.8z" p-id="13835" ></path></svg>