<?xml version="1.0" standalone="no"?><!DOCTYPE svg PUBLIC "-//W3C//DTD SVG 1.1//EN" "http://www.w3.org/Graphics/SVG/1.1/DTD/svg11.dtd"><svg t="1621158375282" class="icon" viewBox="0 0 1024 1024" version="1.1" xmlns="http://www.w3.org/2000/svg" p-id="2877" xmlns:xlink="http://www.w3.org/1999/xlink" width="16" height="16"><defs><style type="text/css"></style></defs><path d="M734.444 802.667c17.674 0 32 14.327 32 32 0 17.496-14.041 31.713-31.47 31.995l-0.53 0.005H290c-17.673 0-32-14.327-32-32 0-17.497 14.042-31.713 31.47-31.996l0.53-0.004h444.444zM512.222 136c17.497 0 31.713 14.042 31.996 31.47l0.004 0.53v456.077l167.595-167.593c12.497-12.497 32.758-12.497 45.255 0 12.372 12.372 12.495 32.353 0.371 44.877l-0.371 0.378L534.85 723.96c-0.294 0.293-0.591 0.58-0.893 0.86l-0.572 0.515a31.825 31.825 0 0 1-8.047 5.196l-0.66 0.287-0.45 0.186a31.787 31.787 0 0 1-8.414 2.129l-0.723 0.071-0.442 0.038-0.74 0.047-0.781 0.03c-0.301 0.013-0.603 0.013-0.906 0.013h-0.452l-0.708-0.02-0.824-0.04a31.827 31.827 0 0 1-9.443-2.04l-0.614-0.243-0.43-0.177a31.83 31.83 0 0 1-8.582-5.379l-0.7-0.63-0.385-0.364a32.202 32.202 0 0 1-0.49-0.48L267.374 501.74c-12.497-12.497-12.497-32.759 0-45.255 12.371-12.372 32.353-12.496 44.877-0.371l0.377 0.37 167.595 167.595V168c0-17.673 14.327-32 32-32z" p-id="2878" ></path></svg>