<?xml version="1.0" standalone="no"?><!DOCTYPE svg PUBLIC "-//W3C//DTD SVG 1.1//EN" "http://www.w3.org/Graphics/SVG/1.1/DTD/svg11.dtd"><svg t="1621158787023" class="icon" viewBox="0 0 1024 1024" version="1.1" xmlns="http://www.w3.org/2000/svg" p-id="1811" xmlns:xlink="http://www.w3.org/1999/xlink" width="16" height="16"><defs><style type="text/css"></style></defs><path d="M616.96 435.2c-7.68 0-12.8-2.56-17.92-7.68-10.24-10.24-10.24-25.6 0-35.84L837.12 153.6c10.24-10.24 25.6-10.24 35.84 0s10.24 25.6 0 35.84l-238.08 238.08c-5.12 5.12-12.8 7.68-17.92 7.68z"  p-id="1812"></path><path d="M739.84 440.32h-130.56c-15.36 0-25.6-10.24-25.6-25.6V281.6c0-15.36 10.24-25.6 25.6-25.6s25.6 10.24 25.6 25.6v104.96h104.96c15.36 0 25.6 10.24 25.6 25.6s-10.24 28.16-25.6 28.16zM179.2 872.96c-7.68 0-12.8-2.56-17.92-7.68-10.24-10.24-10.24-25.6 0-35.84l238.08-238.08c10.24-10.24 25.6-10.24 35.84 0s10.24 25.6 0 35.84l-238.08 238.08c-5.12 5.12-12.8 7.68-17.92 7.68z"  p-id="1813"></path><path d="M422.4 757.76c-15.36 0-25.6-10.24-25.6-25.6v-104.96h-104.96c-15.36 0-25.6-10.24-25.6-25.6s10.24-25.6 25.6-25.6h130.56c15.36 0 25.6 10.24 25.6 25.6v130.56c0 15.36-12.8 25.6-25.6 25.6zM855.04 872.96c-7.68 0-12.8-2.56-17.92-7.68l-238.08-238.08c-10.24-10.24-10.24-25.6 0-35.84s25.6-10.24 35.84 0l238.08 238.08c10.24 10.24 10.24 25.6 0 35.84-5.12 5.12-12.8 7.68-17.92 7.68z"  p-id="1814"></path><path d="M609.28 760.32c-15.36 0-25.6-10.24-25.6-25.6v-130.56c0-15.36 10.24-25.6 25.6-25.6h130.56c15.36 0 25.6 10.24 25.6 25.6s-10.24 25.6-25.6 25.6h-104.96v104.96c0 15.36-10.24 25.6-25.6 25.6zM417.28 435.2c-7.68 0-12.8-2.56-17.92-7.68L161.28 189.44c-10.24-10.24-10.24-28.16 0-35.84s25.6-10.24 35.84 0l238.08 238.08c10.24 10.24 10.24 25.6 0 35.84-5.12 5.12-12.8 7.68-17.92 7.68z"  p-id="1815"></path><path d="M422.4 440.32h-130.56c-15.36 0-25.6-10.24-25.6-25.6s10.24-25.6 25.6-25.6h104.96v-104.96c0-15.36 10.24-25.6 25.6-25.6s25.6 10.24 25.6 25.6v130.56c0 15.36-12.8 25.6-25.6 25.6z"  p-id="1816"></path></svg>