<?xml version="1.0" standalone="no"?><!DOCTYPE svg PUBLIC "-//W3C//DTD SVG 1.1//EN" "http://www.w3.org/Graphics/SVG/1.1/DTD/svg11.dtd"><svg t="1621158646181" class="icon" viewBox="0 0 1024 1024" version="1.1" xmlns="http://www.w3.org/2000/svg" p-id="15703" xmlns:xlink="http://www.w3.org/1999/xlink" width="16" height="16"><defs><style type="text/css"></style></defs><path d="M512 960C264.576 960 64 759.424 64 512S264.576 64 512 64s448 200.576 448 448-200.576 448-448 448z m0-64c212.077 0 384-171.923 384-384S724.077 128 512 128 128 299.923 128 512s171.923 384 384 384z m-92-552c17.673 0 32 14.327 32 32v272c0 17.673-14.327 32-32 32-17.673 0-32-14.327-32-32V376c0-17.673 14.327-32 32-32z m184 0c17.673 0 32 14.327 32 32v272c0 17.673-14.327 32-32 32-17.673 0-32-14.327-32-32V376c0-17.673 14.327-32 32-32z" p-id="15704" ></path></svg>