<?xml version="1.0" standalone="no"?><!DOCTYPE svg PUBLIC "-//W3C//DTD SVG 1.1//EN" "http://www.w3.org/Graphics/SVG/1.1/DTD/svg11.dtd"><svg t="1621158367285" class="icon" viewBox="0 0 1024 1024" version="1.1" xmlns="http://www.w3.org/2000/svg" p-id="2670" xmlns:xlink="http://www.w3.org/1999/xlink" width="16" height="16"><defs><style type="text/css"></style></defs><path d="M878 570c18.59 0 33.695 14.92 34 33.438v216.288c0 50.488-40.648 91.448-91.024 92.262l-1.53 0.012H204.554c-50.568 0-91.723-40.454-92.54-90.747l-0.013-1.527V604c0-18.778 15.222-34 34-34 18.59 0 33.695 14.92 33.995 33.438L180 604v240h664V604c0-18.778 15.222-34 34-34zM541.565 125.29l0.289 0.268c0.133 0.125 0.255 0.248 0.4 0.407l0.177 0.2 160.374 160.492c13.14 13.15 13.264 34.38 0.377 47.683l-0.395 0.4c-13.15 13.14-34.38 13.264-47.682 0.377l-0.401-0.394L546 225.938V686.69c0 17.673-14.327 32-32 32h-4c-17.673 0-32-14.327-32-32V225.69L369.05 334.723c-13.14 13.15-34.37 13.289-47.682 0.412l-0.4-0.395c-13.15-13.14-13.29-34.37-0.413-47.682l0.395-0.4 161.19-161.31c16.39-16.446 43.008-16.463 59.425-0.058z" p-id="2671" ></path></svg>